<svg width="812" height="839" viewBox="0 0 812 839" fill="none" xmlns="http://www.w3.org/2000/svg">
<path d="M500.358 58.5099C525.128 120.209 539.735 154.734 569.609 187.714C599.836 220.546 645.319 251.815 739.938 303.615C780.934 325.843 808.981 363.308 811.377 407.762C814 456.611 785.478 502.347 742.05 530.995C684.38 570.171 655.132 592.074 632.939 619.42C611.099 646.792 596.305 679.607 575.88 741.115C560.403 790.947 521.602 829.285 466.332 837.239C401.776 846.552 326.853 811.077 286.047 751.64C234.649 677.706 208.83 637.842 178.585 607.338C148.688 576.631 114.377 555.288 53.7991 513.501C53.7991 513.501 53.7991 513.501 53.8092 513.5C24.7651 493.418 4.19348 462.631 1.31945 426.843C-2.23888 383.747 20.854 344.03 56.271 319.648C218.374 207.843 222.987 195.707 308.99 61.3665C331.267 26.3302 371.428 1.84445 412.295 0.862059C454.429 -0.135096 487.37 23.7575 500.358 58.5099Z" fill="#24CDAF" fill-opacity="0.07"/>
</svg>
