<svg width="40" height="40" viewBox="0 0 40 40" fill="none" xmlns="http://www.w3.org/2000/svg">
<rect width="40" height="40" rx="5" fill="#24CDAF"/>
<path d="M20 19C21.0609 19 22.0783 18.5786 22.8284 17.8284C23.5786 17.0783 24 16.0609 24 15C24 13.9391 23.5786 12.9217 22.8284 12.1716C22.0783 11.4214 21.0609 11 20 11C18.9391 11 17.9217 11.4214 17.1716 12.1716C16.4214 12.9217 16 13.9391 16 15C16 16.0609 16.4214 17.0783 17.1716 17.8284C17.9217 18.5786 18.9391 19 20 19ZM16.62 20.922L16.994 20.373C17.9032 20.7861 18.8903 20.9999 19.889 21H20.112C20.9684 20.9999 21.8174 20.8426 22.617 20.536L22.88 20.922C23.002 21.102 23.125 21.452 23.207 21.895C23.287 22.322 23.309 22.727 23.294 22.95C23.2881 23.0516 23.3017 23.1535 23.334 23.25H22.956C22.8114 23.2502 22.6699 23.2916 22.5481 23.3693C22.4262 23.4471 22.3291 23.558 22.268 23.689L21.577 25.169C21.523 25.2848 21.4991 25.4124 21.5075 25.5399C21.5159 25.6674 21.5563 25.7907 21.625 25.8985C21.6937 26.0062 21.7884 26.0949 21.9005 26.1564C22.0125 26.2178 22.1382 26.25 22.266 26.25H23.4V24.75H24.65V26.25H25.734C25.8618 26.25 25.9875 26.2178 26.0995 26.1564C26.2116 26.0949 26.3063 26.0062 26.375 25.8985C26.4437 25.7907 26.4841 25.6674 26.4925 25.5399C26.5009 25.4124 26.477 25.2848 26.423 25.169L25.733 23.689C25.6718 23.5577 25.5743 23.4466 25.4521 23.3688C25.3298 23.291 25.1879 23.2498 25.043 23.25H24.75C24.7718 23.1853 24.7853 23.1181 24.79 23.05C24.816 22.672 24.778 22.138 24.682 21.62C24.589 21.118 24.42 20.519 24.12 20.078L24.071 20.006C24.1216 20.0021 24.1723 20.0001 24.223 20C24.8503 20 25.4715 20.1236 26.0511 20.3636C26.6307 20.6037 27.1573 20.9556 27.6008 21.3992C28.0444 21.8427 28.3963 22.3693 28.6364 22.9489C28.8764 23.5285 29 24.1497 29 24.777V29H11V24.777C11 22.257 12.95 20.193 15.424 20.013L15.38 20.078C14.789 20.947 14.699 22.024 14.772 22.888C14.797 23.185 14.842 23.478 14.904 23.754C14.6572 23.9733 14.4896 24.2679 14.4273 24.5922C14.365 24.9164 14.4114 25.2521 14.5593 25.5473C14.7073 25.8425 14.9484 26.0806 15.2455 26.2248C15.5425 26.3689 15.8788 26.411 16.2022 26.3446C16.5256 26.2781 16.8181 26.1068 17.0343 25.8573C17.2504 25.6077 17.3782 25.2938 17.3977 24.9642C17.4173 24.6346 17.3276 24.3078 17.1425 24.0344C16.9574 23.7609 16.6873 23.5562 16.374 23.452C16.322 23.2248 16.2859 22.9942 16.266 22.762C16.206 22.056 16.306 21.383 16.62 20.922Z" fill="#F1F1F1"/>
</svg>
