<svg width="40" height="40" viewBox="0 0 40 40" fill="none" xmlns="http://www.w3.org/2000/svg">
<rect width="40" height="40" rx="5" fill="#24CDAF"/>
<path fill-rule="evenodd" clip-rule="evenodd" d="M12 14C12.5304 14 13.0391 13.7893 13.4142 13.4142C13.7893 13.0391 14 12.5304 14 12C14 11.4696 13.7893 10.9609 13.4142 10.5858C13.0391 10.2107 12.5304 10 12 10C11.4696 10 10.9609 10.2107 10.5858 10.5858C10.2107 10.9609 10 11.4696 10 12C10 12.5304 10.2107 13.0391 10.5858 13.4142C10.9609 13.7893 11.4696 14 12 14ZM13 29C13.7956 29 14.5587 28.6839 15.1213 28.1213C15.6839 27.5587 16 26.7956 16 26C16 25.2044 15.6839 24.4413 15.1213 23.8787C14.5587 23.3161 13.7956 23 13 23C12.2044 23 11.4413 23.3161 10.8787 23.8787C10.3161 24.4413 10 25.2044 10 26C10 26.7956 10.3161 27.5587 10.8787 28.1213C11.4413 28.6839 12.2044 29 13 29ZM27 30C27.7956 30 28.5587 29.6839 29.1213 29.1213C29.6839 28.5587 30 27.7956 30 27C30 26.2044 29.6839 25.4413 29.1213 24.8787C28.5587 24.3161 27.7956 24 27 24C26.2044 24 25.4413 24.3161 24.8787 24.8787C24.3161 25.4413 24 26.2044 24 27C24 27.7956 24.3161 28.5587 24.8787 29.1213C25.4413 29.6839 26.2044 30 27 30ZM19 22C20.0609 22 21.0783 21.5786 21.8284 20.8284C22.5786 20.0783 23 19.0609 23 18C23 16.9391 22.5786 15.9217 21.8284 15.1716C21.0783 14.4214 20.0609 14 19 14C17.9391 14 16.9217 14.4214 16.1716 15.1716C15.4214 15.9217 15 16.9391 15 18C15 19.0609 15.4214 20.0783 16.1716 20.8284C16.9217 21.5786 17.9391 22 19 22ZM25 14C25.5304 14 26.0391 13.7893 26.4142 13.4142C26.7893 13.0391 27 12.5304 27 12C27 11.4696 26.7893 10.9609 26.4142 10.5858C26.0391 10.2107 25.5304 10 25 10C24.4696 10 23.9609 10.2107 23.5858 10.5858C23.2107 10.9609 23 11.4696 23 12C23 12.5304 23.2107 13.0391 23.5858 13.4142C23.9609 13.7893 24.4696 14 25 14Z" fill="#F1F1F1" stroke="#F1F1F1" stroke-width="2" stroke-linecap="round" stroke-linejoin="round"/>
<path d="M13.5 13.5L15.5 15.5M23 14L22 15M25 24.75L22 21M15 23.5L17 21.5" stroke="#F1F1F1" stroke-width="2" stroke-linecap="round" stroke-linejoin="round"/>
</svg>
