<svg width="40" height="41" viewBox="0 0 40 41" fill="none" xmlns="http://www.w3.org/2000/svg">
<rect width="40" height="41" rx="10" fill="#CEF3EC"/>
<path d="M20 24.075C19.8667 24.075 19.7417 24.0543 19.625 24.013C19.5083 23.9717 19.4 23.9007 19.3 23.8L15.7 20.2C15.5 20 15.404 19.7667 15.412 19.5C15.42 19.2333 15.516 19 15.7 18.8C15.9 18.6 16.1377 18.496 16.413 18.488C16.6883 18.48 16.9257 18.5757 17.125 18.775L19 20.65V13.5C19 13.2167 19.096 12.9793 19.288 12.788C19.48 12.5967 19.7173 12.5007 20 12.5C20.2827 12.4993 20.5203 12.5953 20.713 12.788C20.9057 12.9807 21.0013 13.218 21 13.5V20.65L22.875 18.775C23.075 18.575 23.3127 18.479 23.588 18.487C23.8633 18.495 24.1007 18.5993 24.3 18.8C24.4833 19 24.5793 19.2333 24.588 19.5C24.5967 19.7667 24.5007 20 24.3 20.2L20.7 23.8C20.6 23.9 20.4917 23.971 20.375 24.013C20.2583 24.055 20.1333 24.0757 20 24.075ZM14 28.5C13.45 28.5 12.9793 28.3043 12.588 27.913C12.1967 27.5217 12.0007 27.0507 12 26.5V24.5C12 24.2167 12.096 23.9793 12.288 23.788C12.48 23.5967 12.7173 23.5007 13 23.5C13.2827 23.4993 13.5203 23.5953 13.713 23.788C13.9057 23.9807 14.0013 24.218 14 24.5V26.5H26V24.5C26 24.2167 26.096 23.9793 26.288 23.788C26.48 23.5967 26.7173 23.5007 27 23.5C27.2827 23.4993 27.5203 23.5953 27.713 23.788C27.9057 23.9807 28.0013 24.218 28 24.5V26.5C28 27.05 27.8043 27.521 27.413 27.913C27.0217 28.305 26.5507 28.5007 26 28.5H14Z" fill="#1A1A1A"/>
</svg>
