<svg width="40" height="41" viewBox="0 0 40 41" fill="none" xmlns="http://www.w3.org/2000/svg">
<rect width="40" height="41" rx="10" fill="#CEF3EC"/>
<path d="M19.3 16.8L17.225 14.7C17.025 14.5 16.925 14.2667 16.925 14C16.925 13.7333 17.025 13.5 17.225 13.3L19.303 11.2C19.501 11 19.7363 10.9 20.009 10.9C20.2823 10.9 20.521 11 20.725 11.2L22.8 13.3C23 13.5 23.1 13.7333 23.1 14C23.1 14.2667 23 14.5 22.8 14.7L20.722 16.8C20.524 17 20.2887 17.1 20.016 17.1C19.7427 17.1 19.504 17 19.3 16.8ZM10 28.5C9.71667 28.5 9.47933 28.404 9.288 28.212C9.09667 28.02 9.00067 27.7827 9 27.5V24.5C9 23.9333 9.196 23.4583 9.588 23.075C9.98 22.6917 10.4507 22.5 11 22.5H14.275C14.6083 22.5 14.925 22.5833 15.225 22.75C15.525 22.9167 15.7667 23.1417 15.95 23.425C16.4333 24.075 17.0293 24.5833 17.738 24.95C18.4467 25.3167 19.2007 25.5 20 25.5C20.8167 25.5 21.5793 25.3167 22.288 24.95C22.9967 24.5833 23.584 24.075 24.05 23.425C24.2667 23.1417 24.521 22.9167 24.813 22.75C25.105 22.5833 25.409 22.5 25.725 22.5H29C29.5667 22.5 30.0417 22.6917 30.425 23.075C30.8083 23.4583 31 23.9333 31 24.5V27.5C31 27.7833 30.904 28.021 30.712 28.213C30.52 28.405 30.2827 28.5007 30 28.5H25C24.7167 28.5 24.4793 28.404 24.288 28.212C24.0967 28.02 24.0007 27.7827 24 27.5V26.225C23.4167 26.6417 22.7873 26.9583 22.112 27.175C21.4367 27.3917 20.7327 27.5 20 27.5C19.2833 27.5 18.5833 27.3877 17.9 27.163C17.2167 26.9383 16.5833 26.6173 16 26.2V27.5C16 27.7833 15.904 28.021 15.712 28.213C15.52 28.405 15.2827 28.5007 15 28.5H10ZM12 21.5C11.1667 21.5 10.4583 21.2083 9.875 20.625C9.29167 20.0417 9 19.3333 9 18.5C9 17.65 9.29167 16.9377 9.875 16.363C10.4583 15.7883 11.1667 15.5007 12 15.5C12.85 15.5 13.5627 15.7877 14.138 16.363C14.7133 16.9383 15.0007 17.6507 15 18.5C15 19.3333 14.7127 20.0417 14.138 20.625C13.5633 21.2083 12.8507 21.5 12 21.5ZM28 21.5C27.1667 21.5 26.4583 21.2083 25.875 20.625C25.2917 20.0417 25 19.3333 25 18.5C25 17.65 25.2917 16.9377 25.875 16.363C26.4583 15.7883 27.1667 15.5007 28 15.5C28.85 15.5 29.5627 15.7877 30.138 16.363C30.7133 16.9383 31.0007 17.6507 31 18.5C31 19.3333 30.7127 20.0417 30.138 20.625C29.5633 21.2083 28.8507 21.5 28 21.5Z" fill="#373737"/>
</svg>
