<svg width="40" height="40" viewBox="0 0 40 40" fill="none" xmlns="http://www.w3.org/2000/svg">
<rect width="40" height="40" rx="5" fill="#24CDAF"/>
<path d="M20 19C21.0609 19 22.0783 18.5786 22.8284 17.8284C23.5786 17.0783 24 16.0609 24 15C24 13.9391 23.5786 12.9217 22.8284 12.1716C22.0783 11.4214 21.0609 11 20 11C18.9391 11 17.9217 11.4214 17.1716 12.1716C16.4214 12.9217 16 13.9391 16 15C16 16.0609 16.4214 17.0783 17.1716 17.8284C17.9217 18.5786 18.9391 19 20 19Z" fill="#F1F1F1"/>
<path fill-rule="evenodd" clip-rule="evenodd" d="M11 24.777C11 23.5101 11.5033 22.295 12.3992 21.3992C13.295 20.5033 14.5101 20 15.777 20C16.079 20 16.377 20.07 16.647 20.205L16.758 20.261C17.7298 20.7469 18.8015 20.9999 19.888 21H20.111C21.1979 21.0001 22.2699 20.7471 23.242 20.261L23.353 20.205C23.623 20.07 23.921 20 24.223 20C25.4899 20 26.705 20.5033 27.6008 21.3992C28.4967 22.295 29 23.5101 29 24.777V29H11V24.777ZM23.75 25.25V26.25H25.25V25.25H26.25V23.75H25.25V22.75H23.75V23.75H22.75V25.25H23.75Z" fill="#F1F1F1"/>
</svg>
