<svg width="40" height="41" viewBox="0 0 40 41" fill="none" xmlns="http://www.w3.org/2000/svg">
<rect width="40" height="41" rx="10" fill="#CEF3EC"/>
<path d="M20 10.5C20.9889 10.5 21.9556 10.7932 22.7779 11.3427C23.6001 11.8921 24.241 12.673 24.6194 13.5866C24.9978 14.5002 25.0969 15.5055 24.9039 16.4755C24.711 17.4454 24.2348 18.3363 23.5355 19.0355C22.8363 19.7348 21.9454 20.211 20.9755 20.4039C20.0055 20.5969 19.0002 20.4978 18.0866 20.1194C17.173 19.741 16.3921 19.1001 15.8427 18.2779C15.2932 17.4556 15 16.4889 15 15.5L15.005 15.283C15.0609 13.9958 15.6116 12.7798 16.5422 11.8887C17.4728 10.9975 18.7115 10.5001 20 10.5ZM22 22.5C23.3261 22.5 24.5979 23.0268 25.5355 23.9645C26.4732 24.9021 27 26.1739 27 27.5V28.5C27 29.0304 26.7893 29.5391 26.4142 29.9142C26.0391 30.2893 25.5304 30.5 25 30.5H15C14.4696 30.5 13.9609 30.2893 13.5858 29.9142C13.2107 29.5391 13 29.0304 13 28.5V27.5C13 26.1739 13.5268 24.9021 14.4645 23.9645C15.4021 23.0268 16.6739 22.5 18 22.5H22Z" fill="#1A1A1A"/>
</svg>
