<svg width="40" height="40" viewBox="0 0 40 40" fill="none" xmlns="http://www.w3.org/2000/svg">
<rect width="40" height="40" rx="5" fill="#24CDAF"/>
<path d="M19.9997 10C18.1432 10 16.3627 10.7375 15.0499 12.0503C13.7372 13.363 12.9997 15.1435 12.9997 17V20.528C12.9998 20.6831 12.9639 20.8362 12.8947 20.975L11.1777 24.408C11.0938 24.5757 11.0542 24.7621 11.0626 24.9494C11.0711 25.1368 11.1272 25.3188 11.2258 25.4783C11.3244 25.6379 11.4622 25.7695 11.626 25.8608C11.7897 25.9521 11.9742 26 12.1617 26H27.8377C28.0252 26 28.2096 25.9521 28.3734 25.8608C28.5372 25.7695 28.6749 25.6379 28.7735 25.4783C28.8721 25.3188 28.9283 25.1368 28.9367 24.9494C28.9452 24.7621 28.9056 24.5757 28.8217 24.408L27.1057 20.975C27.0361 20.8362 26.9999 20.6832 26.9997 20.528V17C26.9997 15.1435 26.2622 13.363 24.9494 12.0503C23.6367 10.7375 21.8562 10 19.9997 10ZM19.9997 29C19.379 29.0003 18.7736 28.8081 18.2667 28.4499C17.7599 28.0917 17.3766 27.5852 17.1697 27H22.8297C22.6228 27.5852 22.2395 28.0917 21.7327 28.4499C21.2258 28.8081 20.6203 29.0003 19.9997 29Z" fill="#F1F1F1"/>
</svg>
